<mxfile host="app.diagrams.net" modified="2024-05-10T13:16:51.482Z" agent="Mozilla/5.0 (Macintosh; Intel Mac OS X 10_15_7) AppleWebKit/537.36 (KHTML, like Gecko) Chrome/122.0.0.0 Safari/537.36" version="24.3.1" etag="I14AcjPIODX93sergEw7" type="github">
  <diagram name="第 1 页" id="04O1ciM2M4s-BVhUvQ0R">
    <mxGraphModel>
      <root>
        <mxCell id="0" />
        <mxCell id="1" parent="0" />
      </root>
    </mxGraphModel>
  </diagram>
</mxfile>
